<?xml version="1.0" encoding="UTF-8"?>
<svg version="1.1" xmlns="http://www.w3.org/2000/svg" width="500" height="500">
<path d="M0 0 C1.61024401 -0.00701996 1.61024401 -0.00701996 3.2530182 -0.01418173 C6.82646583 -0.0260849 10.39952665 -0.01669267 13.97297668 -0.00723267 C16.54434431 -0.01130036 19.11571018 -0.01664335 21.68707275 -0.02316284 C27.93121891 -0.03646221 34.17525654 -0.03363986 40.41940685 -0.02492492 C45.49491828 -0.01813559 50.57039941 -0.01723703 55.64591408 -0.02049637 C56.36968276 -0.02095607 57.09345145 -0.02141577 57.83915252 -0.0218894 C59.30967107 -0.02284861 60.78018961 -0.02382125 62.25070814 -0.02480717 C76.01984254 -0.03334946 89.78891688 -0.02354424 103.55804143 -0.00740607 C115.36565403 0.0060046 127.17317817 0.00366062 138.98078918 -0.01016235 C152.70703264 -0.026224 166.43322361 -0.03253456 180.15947515 -0.02332556 C181.6235115 -0.02236995 183.08754787 -0.02142684 184.55158424 -0.02049637 C185.27184627 -0.02003354 185.9921083 -0.01957072 186.73419645 -0.01909386 C191.8035558 -0.01650637 196.87288177 -0.0208696 201.94223595 -0.02793503 C208.76556187 -0.0372365 215.5887179 -0.03059622 222.41202736 -0.01325226 C224.91661934 -0.00928392 227.42122538 -0.01042736 229.92581177 -0.01704025 C233.3430655 -0.02523149 236.75978246 -0.01496281 240.17700195 0 C241.16921932 -0.00669217 242.16143669 -0.01338433 243.18372124 -0.02027929 C251.92878462 0.05405063 257.65296899 2.4285292 264.09724426 8.44735718 C269.6077933 14.36432414 270.32565053 19.79550153 270.23200989 27.73934937 C269.65264129 34.05649993 267.55741381 39.76323893 265.39802551 45.69345093 C264.9687677 46.92257202 264.53950989 48.15169312 264.09724426 49.4180603 C263.04860523 52.41250731 261.9821755 55.39921808 260.89802551 58.38095093 C261.76673782 58.36429634 261.76673782 58.36429634 262.65299988 58.3473053 C268.7206824 58.23605789 274.78807182 58.16101471 280.85652161 58.10629272 C283.11640709 58.08126184 285.37621253 58.04722655 287.63581848 58.00375366 C290.89790171 57.9425986 294.15890796 57.91462591 297.42146301 57.89266968 C298.91895584 57.85396004 298.91895584 57.85396004 300.44670105 57.81446838 C308.29028617 57.81138356 314.90729203 59.74975703 320.81169128 65.12220764 C326.22052732 70.9211649 328.40562356 77.02813729 328.30285835 84.88964272 C327.39850551 92.68884819 324.45511944 100.07027739 321.92512512 107.46566772 C321.28817863 109.36771195 320.65286975 111.27030525 320.01908016 113.17340374 C318.67645653 117.19767141 317.32501356 121.21882005 315.96688461 125.23788071 C313.94477171 131.22931417 311.95611377 137.23141729 309.97740173 143.23730469 C301.94183567 167.61667971 293.83284094 191.97185596 285.73027134 216.32903004 C281.26052636 229.76600987 276.79788975 243.2053075 272.34423023 256.64762765 C269.1766974 266.20607478 266.00108891 275.76181594 262.81956714 285.31561583 C260.93240963 290.98330793 259.04874621 296.65210264 257.17393684 302.32389259 C255.41908583 307.63227506 253.65419685 312.93721572 251.88177299 318.23975563 C251.23760287 320.17259267 250.5969689 322.10661279 249.96032715 324.0419426 C239.24133803 356.60360906 239.24133803 356.60360906 225.83552551 366.00595093 C224.81329895 366.74071655 223.79107239 367.47548218 222.73786926 368.23251343 C214.33076809 373.37780615 205.25666065 374.97726646 195.55554199 374.88215637 C194.48033714 374.88769077 193.40513228 374.89322517 192.29734546 374.89892727 C188.72999596 374.91243339 185.16335835 374.89761901 181.59602356 374.88265991 C179.0243602 374.88644661 176.45269888 374.89194953 173.88104248 374.89903259 C167.6438184 374.91290468 161.40679793 374.90545498 155.1695837 374.89035701 C147.89899666 374.87343198 140.62845942 374.87671509 133.35785875 374.88045109 C120.38479718 374.88631807 107.41183293 374.87220106 94.438797 374.84750366 C81.86096046 374.82356148 69.2832538 374.81651052 56.70539856 374.82699585 C42.98865722 374.8384102 29.27197582 374.84033065 15.55523521 374.82589775 C14.09235339 374.82437198 12.62947157 374.82285163 11.16658974 374.82133675 C10.44691768 374.82057893 9.72724563 374.81982112 8.98576533 374.81904034 C3.92139599 374.81430345 -1.14294652 374.81614454 -6.20731544 374.82040215 C-13.02247474 374.82584841 -19.83742781 374.81506856 -26.6525631 374.79344749 C-29.15392831 374.78788108 -31.65531081 374.78741298 -34.15667725 374.79240036 C-37.56945443 374.79835201 -40.98168155 374.78584973 -44.39440918 374.76863098 C-45.88068887 374.77764605 -45.88068887 374.77764605 -47.39699441 374.78684324 C-56.13584037 374.70660345 -61.86152102 372.32907349 -68.30119324 366.31454468 C-73.81174227 360.39757771 -74.5295995 354.96640033 -74.43595886 347.02255249 C-73.85659027 340.70540192 -71.76136278 334.99866293 -69.60197449 329.06845093 C-69.17271667 327.83932983 -68.74345886 326.61020874 -68.30119324 325.34384155 C-67.25255421 322.34939454 -66.18612448 319.36268377 -65.10197449 316.38095093 C-65.68111603 316.39205399 -66.26025757 316.40315704 -66.85694885 316.41459656 C-72.92463137 316.52584397 -78.9920208 316.60088714 -85.06047058 316.65560913 C-87.32035606 316.68064002 -89.58016151 316.7146753 -91.83976746 316.75814819 C-95.10185068 316.81930326 -98.36285694 316.84727595 -101.62541199 316.86923218 C-103.12290482 316.90794182 -103.12290482 316.90794182 -104.65065002 316.94743347 C-112.49423514 316.95051829 -119.111241 315.01214483 -125.01564026 309.63969421 C-130.42597521 303.83912993 -132.60879628 297.7322463 -132.50569153 289.86891174 C-131.6049252 282.08663523 -128.66944907 274.72292166 -126.14494324 267.34384155 C-125.50843114 265.44310317 -124.8735584 263.54181513 -124.24020386 261.64002228 C-122.89541062 257.60925028 -121.54177782 253.58160343 -120.1815033 249.55603027 C-118.1404919 243.50828303 -116.13325003 237.44975343 -114.13566589 231.38754272 C-105.96782947 206.610836 -97.72624976 181.85843406 -89.49125671 157.10398102 C-84.94594201 143.44027364 -80.40773986 129.77424611 -75.87848949 116.10520506 C-72.65914908 106.39139841 -69.43176809 96.68028581 -66.19846058 86.9711194 C-64.27947982 81.20794824 -62.36401548 75.44366586 -60.45735168 69.67640686 C-58.67374295 64.28186392 -56.88017376 58.89073541 -55.07901573 53.50202751 C-54.42313797 51.53406661 -53.77081861 49.56491541 -53.12244606 47.59446907 C-47.84871764 31.5782957 -42.90453798 17.28976652 -28.35197449 7.63095093 C-27.79187683 7.25373901 -27.23177917 6.8765271 -26.65470886 6.48788452 C-18.31020864 1.20760196 -9.72233979 -0.06601912 0 0 Z " fill="#1ACAE8" transform="translate(152.1019744873047,62.619049072265625)"/>
<path d="M0 0 C6.79504192 -0.1275133 13.58977163 -0.21464857 20.38574219 -0.2746582 C22.69412771 -0.29969317 25.00243483 -0.33373154 27.31054688 -0.37719727 C30.64212465 -0.43833373 33.97264813 -0.46632107 37.3046875 -0.48828125 C38.32488983 -0.51408768 39.34509216 -0.5398941 40.39620972 -0.56648254 C48.30852923 -0.56953084 54.95290273 1.3158753 60.91281128 6.74125671 C66.32326387 12.5386962 68.50759207 18.64764367 68.40483284 26.50869179 C67.50048 34.30789726 64.55709392 41.68932646 62.02709961 49.0847168 C61.39015312 50.98676103 60.75484423 52.88935432 60.12105465 54.79245281 C58.77843102 58.81672048 57.42698804 62.83786912 56.0688591 66.85692978 C54.0467462 72.84836324 52.05808826 78.85046637 50.07937622 84.85635376 C42.04381016 109.23572878 33.93481542 133.59090503 25.83224583 157.94807911 C21.36250085 171.38505894 16.89986424 184.82435657 12.44620472 198.26667672 C9.27867189 207.82512385 6.10306339 217.38086501 2.92154163 226.93466491 C1.03438412 232.602357 -0.84927931 238.27115172 -2.72408867 243.94294167 C-4.47893969 249.25132414 -6.24382866 254.55626479 -8.01625252 259.8588047 C-8.66042265 261.79164175 -9.30105661 263.72566186 -9.93769836 265.66099167 C-20.65668748 298.22265814 -20.65668748 298.22265814 -34.0625 307.625 C-35.08472656 308.35976563 -36.10695313 309.09453125 -37.16015625 309.8515625 C-45.56725742 314.99685522 -54.64136486 316.59631553 -64.34248352 316.50120544 C-65.41768838 316.50673984 -66.49289323 316.51227424 -67.60068005 316.51797634 C-71.16802955 316.53148246 -74.73466717 316.51666808 -78.30200195 316.50170898 C-80.87366532 316.50549568 -83.44532664 316.5109986 -86.01698303 316.51808167 C-92.25420711 316.53195375 -98.49122758 316.52450405 -104.72844181 316.50940608 C-111.99902885 316.49248105 -119.26956609 316.49576417 -126.54016676 316.49950016 C-139.51322834 316.50536714 -152.48619258 316.49125013 -165.45922852 316.46655273 C-178.03706505 316.44261055 -190.61477171 316.43555959 -203.19262695 316.44604492 C-216.90936829 316.45745927 -230.62604969 316.45937973 -244.34279031 316.44494683 C-245.80567212 316.44342106 -247.26855395 316.4419007 -248.73143578 316.44038582 C-249.45110783 316.439628 -250.17077988 316.43887019 -250.91226018 316.43808941 C-255.97662952 316.43335252 -261.04097203 316.43519361 -266.10534096 316.43945122 C-272.92050025 316.44489749 -279.73545332 316.43411763 -286.55058861 316.41249657 C-289.05195382 316.40693015 -291.55333632 316.40646205 -294.05470276 316.41144943 C-297.46747994 316.41740108 -300.87970707 316.4048988 -304.29243469 316.38768005 C-305.77871438 316.39669512 -305.77871438 316.39669512 -307.29501992 316.40589231 C-316.03386588 316.32565252 -321.75954653 313.94812256 -328.19921875 307.93359375 C-333.70976778 302.01662678 -334.42762502 296.5854494 -334.33398438 288.64160156 C-333.75461578 282.32445099 -331.65938829 276.617712 -329.5 270.6875 C-329.07074219 269.45837891 -328.64148438 268.22925781 -328.19921875 266.96289062 C-327.15057972 263.96844361 -326.08414999 260.98173285 -325 258 C-323.91700371 258.00037703 -322.83400742 258.00075405 -321.71819305 258.0011425 C-295.31661709 258.00896087 -268.9152461 257.98224742 -242.51374054 257.9197216 C-229.74593347 257.89027617 -216.97829227 257.87188361 -204.21044922 257.87988281 C-193.07667128 257.8868298 -181.94315027 257.87265973 -170.80943537 257.83356392 C-164.9189674 257.81360565 -159.0289024 257.80392878 -153.13841248 257.81957626 C-147.58306358 257.83399889 -142.02848119 257.81998063 -136.47323036 257.78504753 C-134.44491753 257.7771421 -132.41653448 257.77923168 -130.38825035 257.79260826 C-114.61560783 257.88775021 -100.34206498 256.06517028 -88.1015625 245.09375 C-87.40804687 244.4028125 -86.71453125 243.711875 -86 243 C-85.36835938 242.3915625 -84.73671875 241.783125 -84.0859375 241.15625 C-79.88741129 236.49533103 -77.82271811 231.3445478 -75.74899292 225.53065491 C-75.44751622 224.69815312 -75.14603952 223.86565134 -74.83542717 223.00792223 C-71.29787307 213.16697494 -67.99649129 203.24684476 -64.70361328 193.32202148 C-64.00496885 191.22388056 -63.30605222 189.12583026 -62.60688782 187.02786255 C-61.11668044 182.55433428 -59.62834891 178.08018822 -58.14154434 173.60552788 C-55.79144921 166.53278872 -53.43699831 159.46150416 -51.08200073 152.39039612 C-47.36245557 141.22043603 -43.64572274 130.0495426 -39.93024433 118.8782292 C-36.96260805 109.95546893 -33.99435747 101.03291333 -31.02539062 92.1105957 C-30.81571841 91.4804882 -30.60604619 90.85038069 -30.39002027 90.20117902 C-26.89793961 79.70693508 -23.40464543 69.21309528 -19.91073596 58.71946007 C-17.56866386 51.6848286 -15.22827722 44.64963928 -12.88923955 37.61399829 C-11.44024777 33.25641449 -9.99005498 28.89923107 -8.5395565 24.54214859 C-7.86538941 22.51616506 -7.19174572 20.49000729 -6.51865196 18.46366692 C-5.60332946 15.70830744 -4.68618959 12.95355959 -3.76858521 10.19895935 C-3.50001556 9.38897332 -3.23144591 8.57898729 -2.95473778 7.74445623 C-1.11406481 2.22812963 -1.11406481 2.22812963 0 0 Z " fill="#0558ED" transform="translate(412,121)"/>
<path d="M0 0 C1.61024401 -0.00701996 1.61024401 -0.00701996 3.2530182 -0.01418173 C6.82646583 -0.0260849 10.39952665 -0.01669267 13.97297668 -0.00723267 C16.54434431 -0.01130036 19.11571018 -0.01664335 21.68707275 -0.02316284 C27.93121891 -0.03646221 34.17525654 -0.03363986 40.41940685 -0.02492492 C45.49491828 -0.01813559 50.57039941 -0.01723703 55.64591408 -0.02049637 C56.36968276 -0.02095607 57.09345145 -0.02141577 57.83915252 -0.0218894 C59.30967107 -0.02284861 60.78018961 -0.02382125 62.25070814 -0.02480717 C76.01984254 -0.03334946 89.78891688 -0.02354424 103.55804143 -0.00740607 C115.36565403 0.0060046 127.17317817 0.00366062 138.98078918 -0.01016235 C152.70703264 -0.026224 166.43322361 -0.03253456 180.15947515 -0.02332556 C181.6235115 -0.02236995 183.08754787 -0.02142684 184.55158424 -0.02049637 C185.27184627 -0.02003354 185.9921083 -0.01957072 186.73419645 -0.01909386 C191.8035558 -0.01650637 196.87288177 -0.0208696 201.94223595 -0.02793503 C208.76556187 -0.0372365 215.5887179 -0.03059622 222.41202736 -0.01325226 C224.91661934 -0.00928392 227.42122538 -0.01042736 229.92581177 -0.01704025 C233.3430655 -0.02523149 236.75978246 -0.01496281 240.17700195 0 C241.16921932 -0.00669217 242.16143669 -0.01338433 243.18372124 -0.02027929 C251.92878462 0.05405063 257.65296899 2.4285292 264.09724426 8.44735718 C269.6077933 14.36432414 270.32565053 19.79550153 270.23200989 27.73934937 C269.65264129 34.05649993 267.55741381 39.76323893 265.39802551 45.69345093 C264.9687677 46.92257202 264.53950989 48.15169312 264.09724426 49.4180603 C263.04860523 52.41250731 261.9821755 55.39921808 260.89802551 58.38095093 C259.81134205 58.38241749 258.72465858 58.38388405 257.60504532 58.38539505 C231.13812568 58.42202401 204.67133225 58.48151823 178.20451736 58.56485367 C165.40524847 58.60462755 152.60604091 58.63702849 139.80671692 58.65194702 C128.64810987 58.66497202 117.48963788 58.69195857 106.3311069 58.73556399 C100.42520405 58.75815947 94.51946767 58.77386274 88.61351776 58.77283478 C83.04846592 58.77208705 77.48378181 58.7900835 71.91882515 58.82211876 C69.88238516 58.83059938 67.84590384 58.83238026 65.80945396 58.82675362 C49.30804114 58.78725291 35.10809411 60.6856757 22.57380676 72.58798218 C15.39894939 80.37290136 11.94850231 88.46937823 8.62507629 98.3934021 C8.19651752 99.65634437 7.76744634 100.91911285 7.33792305 102.18172741 C6.11667249 105.7808406 4.906615 109.38362831 3.69964314 112.98755217 C2.86945703 115.46624817 2.03767057 117.94440315 1.20566559 120.42248917 C-3.09731113 133.24491848 -7.3732862 146.07630523 -11.64516306 158.90912271 C-13.49513395 164.46538126 -15.34685857 170.02105531 -17.19837952 175.57679749 C-20.68773014 186.04793012 -24.17555413 196.51957055 -27.66279876 206.99140471 C-31.63998001 218.934212 -35.61891026 230.87643634 -39.5979712 242.81861746 C-47.76788769 267.33875741 -55.93566058 291.85961095 -64.10197449 316.38095093 C-70.89701641 316.50846422 -77.69174611 316.5955995 -84.48771667 316.65560913 C-86.7961022 316.6806441 -89.10440932 316.71468247 -91.41252136 316.75814819 C-94.74409914 316.81928466 -98.07462261 316.847272 -101.40666199 316.86923218 C-102.93696548 316.90794182 -102.93696548 316.90794182 -104.4981842 316.94743347 C-112.41050372 316.95048177 -119.05487722 315.06507563 -125.01478577 309.63969421 C-130.42673775 303.84064809 -132.60879028 297.73178864 -132.50569153 289.86891174 C-131.6049252 282.08663523 -128.66944907 274.72292166 -126.14494324 267.34384155 C-125.50843114 265.44310317 -124.8735584 263.54181513 -124.24020386 261.64002228 C-122.89541062 257.60925028 -121.54177782 253.58160343 -120.1815033 249.55603027 C-118.1404919 243.50828303 -116.13325003 237.44975343 -114.13566589 231.38754272 C-105.96782947 206.610836 -97.72624976 181.85843406 -89.49125671 157.10398102 C-84.94594201 143.44027364 -80.40773986 129.77424611 -75.87848949 116.10520506 C-72.65914908 106.39139841 -69.43176809 96.68028581 -66.19846058 86.9711194 C-64.27947982 81.20794824 -62.36401548 75.44366586 -60.45735168 69.67640686 C-58.67374295 64.28186392 -56.88017376 58.89073541 -55.07901573 53.50202751 C-54.42313797 51.53406661 -53.77081861 49.56491541 -53.12244606 47.59446907 C-47.84871764 31.5782957 -42.90453798 17.28976652 -28.35197449 7.63095093 C-27.79187683 7.25373901 -27.23177917 6.8765271 -26.65470886 6.48788452 C-18.31020864 1.20760196 -9.72233979 -0.06601912 0 0 Z " fill="#21E7E6" transform="translate(152.1019744873047,62.619049072265625)"/>
</svg>
